<svg width="31" height="31" viewBox="0 0 31 31" fill="none" xmlns="http://www.w3.org/2000/svg">
<path d="M15.5 2.58331C8.37004 2.58331 2.58337 8.49915 2.58337 15.8358C2.58337 21.6483 6.29046 26.5825 11.4184 28.3262C12.0642 28.4554 12.2967 28.0421 12.2967 27.7062C12.2967 27.3962 12.2838 26.5696 12.2838 25.4716C8.69296 26.2725 7.93087 23.7021 7.93087 23.7021C7.34962 22.1779 6.49712 21.7775 6.49712 21.7775C5.32171 20.9508 6.58754 20.9637 6.58754 20.9637C7.87921 21.0541 8.56379 22.32 8.56379 22.32C9.72629 24.3479 11.6121 23.7666 12.3613 23.4308C12.4775 22.5654 12.8134 21.9841 13.175 21.6483C10.3075 21.3125 7.28504 20.1758 7.28504 15.0996C7.28504 13.6529 7.78879 12.4775 8.61546 11.5475C8.48629 11.2116 8.03421 9.84248 8.74462 7.9954C8.74462 7.9954 9.82962 7.64665 12.2967 9.35165C13.3358 9.03377 14.4137 8.85993 15.5 8.83498C16.598 8.83498 17.7088 8.98998 18.7421 9.29998C21.1963 7.59498 22.2942 7.94373 22.2942 7.94373C23.0046 9.79081 22.5525 11.16 22.4234 11.4958C23.25 12.4258 23.7538 13.6012 23.7538 15.0479C23.7538 20.1371 20.7313 21.2608 17.8509 21.5966C18.3159 22.01 18.7292 22.8237 18.7292 24.0766C18.7292 25.8721 18.7163 27.3187 18.7163 27.7579C18.7163 28.1066 18.9488 28.52 19.6075 28.3779C22.2202 27.4981 24.4837 25.807 26.0683 23.551C27.6528 21.295 28.4756 18.592 28.4167 15.8358C28.4167 8.49915 22.63 2.58331 15.5 2.58331Z" fill="#676767"/>
</svg>
