<svg width="27" height="27" viewBox="0 0 27 27" fill="none" xmlns="http://www.w3.org/2000/svg">
<g clip-path="url(#clip0_27_28)">
<path d="M13.5 27C20.9558 27 27 20.9558 27 13.5C27 6.04416 20.9558 0 13.5 0C6.04416 0 0 6.04416 0 13.5C0 20.9558 6.04416 27 13.5 27Z" fill="#8EC5F5"/>
<path d="M8.1 10.2375H10.8V18.9H8.1V10.2375ZM9.45 6.1875C9.86772 6.1875 10.2683 6.35344 10.5637 6.64881C10.8591 6.94418 11.025 7.34478 11.025 7.7625C11.025 8.18022 10.8591 8.58082 10.5637 8.87619C10.2683 9.17156 9.86772 9.3375 9.45 9.3375C9.03228 9.3375 8.63168 9.17156 8.33631 8.87619C8.04094 8.58082 7.875 8.18022 7.875 7.7625C7.875 7.34478 8.04094 6.94418 8.33631 6.64881C8.63168 6.35344 9.03228 6.1875 9.45 6.1875ZM12.6 10.2375H15.1875V11.475H15.2212C15.5812 10.8 16.4588 10.0913 17.775 10.0913C20.5087 10.0913 21.015 11.8912 21.015 14.2312V18.99H18.315V14.7712C18.315 13.7587 18.2925 12.465 16.9087 12.465C15.5025 12.465 15.2888 13.5563 15.2888 14.6925V18.99H12.5887V10.2375H12.6Z" fill="white"/>
</g>
<defs>
<clipPath id="clip0_27_28">
<rect width="27" height="27" fill="white"/>
</clipPath>
</defs>
</svg>
